<?xml version="1.0" encoding="UTF-8" standalone="no"?>
<svg
   xmlns:dc="http://purl.org/dc/elements/1.1/"
   xmlns:cc="http://creativecommons.org/ns#"
   xmlns:rdf="http://www.w3.org/1999/02/22-rdf-syntax-ns#"
   xmlns:svg="http://www.w3.org/2000/svg"
   xmlns="http://www.w3.org/2000/svg"
   xmlns:sodipodi="http://sodipodi.sourceforge.net/DTD/sodipodi-0.dtd"
   xmlns:inkscape="http://www.inkscape.org/namespaces/inkscape"
   viewBox="0 0 512 512"
   width="512"
   height="512"
   version="1.1"
   id="svg6"
   sodipodi:docname="gift-use.svg"
   inkscape:version="0.92.4 (5da689c313, 2019-01-14)">
  <metadata
     id="metadata12">
    <rdf:RDF>
      <cc:Work
         rdf:about="">
        <dc:format>image/svg+xml</dc:format>
        <dc:type
           rdf:resource="http://purl.org/dc/dcmitype/StillImage" />
        <dc:title />
      </cc:Work>
    </rdf:RDF>
  </metadata>
  <defs
     id="defs10" />
  <sodipodi:namedview
     pagecolor="#858585"
     bordercolor="#666666"
     borderopacity="1"
     objecttolerance="10"
     gridtolerance="10"
     guidetolerance="10"
     inkscape:pageopacity="0"
     inkscape:pageshadow="2"
     inkscape:window-width="640"
     inkscape:window-height="480"
     id="namedview8"
     showgrid="true"
     inkscape:zoom="1.2228954"
     inkscape:cx="321.84684"
     inkscape:cy="294.43072"
     inkscape:current-layer="layer1"
     inkscape:snap-bbox="false"
     inkscape:snap-bbox-edge-midpoints="false"
     inkscape:snap-bbox-midpoints="true"
     inkscape:snap-global="true">
    <inkscape:grid
       type="xygrid"
       id="grid1023"
       spacingx="4"
       spacingy="4"
       enabled="true" />
  </sodipodi:namedview>
  <g
     inkscape:groupmode="layer"
     id="layer3"
     inkscape:label="Layer 2" />
  <g
     inkscape:groupmode="layer"
     id="layer1"
     inkscape:label="Layer 1">
    <g
       id="g826"
       transform="matrix(1.3443724,0,0,1.3443724,-9.9781436,-49.691446)">
      <path
         sodipodi:nodetypes="cccccccccccccccccccccccc"
         inkscape:connector-curvature="0"
         id="path953"
         d="m 443.1799,431.61477 26.73096,-32.62898 14.79214,-33.26114 -5.93187,-29.95004 -237.27483,-11.98002 -77.11431,-131.78021 -5.93187,-23.96004 -2.25966,-18.02787 16.27979,-27.85668 -46.79623,-67.925629 -14.67888,3.520823 0.89265,-7.424947 -11.33515,7.345291 L 88.174204,56.233077 78.960215,66.31181 64.653474,65.435168 52.594257,72.742503 48,80 l 9.608312,48.57016 3.800772,16.03626 6.47995,17.0913 14.661235,13.09836 92.228691,232.85864 z"
         style="opacity:1;fill:#ffffff;fill-opacity:1;fill-rule:evenodd;stroke:#000000;stroke-width:2.98043442;stroke-linecap:round;stroke-linejoin:round;stroke-miterlimit:4;stroke-dasharray:none;stroke-dashoffset:0;stroke-opacity:1" />
      <path
         sodipodi:nodetypes="cccccccccc"
         inkscape:connector-curvature="0"
         id="path955"
         d="m 64.653474,65.435168 -4.668732,12.636865 3.555438,21.421707 2.741032,17.25743 -6.454611,3.3831 H 51.676445 L 45.744578,102.16424 42.759844,76 50.549928,62.827509 Z"
         style="opacity:1;fill:#ffffff;fill-opacity:1;fill-rule:evenodd;stroke:#000000;stroke-width:2.98043442;stroke-linecap:round;stroke-linejoin:round;stroke-miterlimit:4;stroke-dasharray:none;stroke-dashoffset:0;stroke-opacity:1" />
      <path
         sodipodi:nodetypes="cccccccccc"
         inkscape:connector-curvature="0"
         id="path957"
         d="m 88.174204,56.233077 -5.529224,12.73914 1.712081,24.195729 2.944731,17.188714 -21.02058,6.39451 L 63.54018,98.712378 59.984742,78.072033 64.653474,65.435168 76,54.250271 Z"
         style="opacity:1;fill:#ffffff;fill-opacity:1;fill-rule:evenodd;stroke:#000000;stroke-width:2.98043442;stroke-linecap:round;stroke-linejoin:round;stroke-miterlimit:4;stroke-dasharray:none;stroke-dashoffset:0;stroke-opacity:1" />
      <path
         sodipodi:nodetypes="cccccccccc"
         inkscape:connector-curvature="0"
         id="path963"
         d="M 108.3327,106.83372 128.79076,102.16424 122.85889,84.194204 122.61092,64.288718 129.41321,60 117.07784,44 l -5.19005,6.340037 -7.59103,13.786036 0.76652,23.232906 z"
         style="opacity:1;fill:#ffffff;fill-opacity:1;fill-rule:evenodd;stroke:#000000;stroke-width:2.98043442;stroke-linecap:round;stroke-linejoin:round;stroke-miterlimit:4;stroke-dasharray:none;stroke-dashoffset:0;stroke-opacity:1" />
      <path
         sodipodi:nodetypes="cccccccccc"
         inkscape:connector-curvature="0"
         id="path959"
         d="m 111.88779,50.340037 -7.59103,13.786036 0.76652,23.232906 3.26942,19.474741 -21.030908,3.52294 -2.944731,-17.188714 -1.712081,-24.195729 5.529224,-12.73914 9.04332,-10.012555 z"
         style="opacity:1;fill:#ffffff;fill-opacity:1;fill-rule:evenodd;stroke:#000000;stroke-width:2.98043442;stroke-linecap:round;stroke-linejoin:round;stroke-miterlimit:4;stroke-dasharray:none;stroke-dashoffset:0;stroke-opacity:1" />
      <path
         sodipodi:nodetypes="ccccccc"
         inkscape:connector-curvature="0"
         id="path961"
         d="M 172.47025,122.16979 160,80 140.65451,60.234167 l -36.35775,3.891906 -5.663966,22.606281 36.089846,-2.53815 9.91734,24.495196"
         style="opacity:1;fill:#ffffff;fill-opacity:1;fill-rule:evenodd;stroke:#000000;stroke-width:2.98043442;stroke-linecap:round;stroke-linejoin:round;stroke-miterlimit:4;stroke-dasharray:none;stroke-dashoffset:0;stroke-opacity:1" />
    </g>
  </g>
</svg>
