<?xml version="1.0" encoding="UTF-8" standalone="no"?>
<svg
   xmlns:dc="http://purl.org/dc/elements/1.1/"
   xmlns:cc="http://creativecommons.org/ns#"
   xmlns:rdf="http://www.w3.org/1999/02/22-rdf-syntax-ns#"
   xmlns:svg="http://www.w3.org/2000/svg"
   xmlns="http://www.w3.org/2000/svg"
   xmlns:sodipodi="http://sodipodi.sourceforge.net/DTD/sodipodi-0.dtd"
   xmlns:inkscape="http://www.inkscape.org/namespaces/inkscape"
   viewBox="0 0 512 512"
   width="512"
   height="512"
   version="1.1"
   id="svg6"
   sodipodi:docname="macro-highest.svg"
   inkscape:version="1.0.2-2 (e86c870879, 2021-01-15)">
  <metadata
     id="metadata12">
    <rdf:RDF>
      <cc:Work
         rdf:about="">
        <dc:format>image/svg+xml</dc:format>
        <dc:type
           rdf:resource="http://purl.org/dc/dcmitype/StillImage" />
        <dc:title />
      </cc:Work>
    </rdf:RDF>
  </metadata>
  <defs
     id="defs10" />
  <sodipodi:namedview
     pagecolor="#858585"
     bordercolor="#666666"
     borderopacity="1"
     objecttolerance="10"
     gridtolerance="10"
     guidetolerance="10"
     inkscape:pageopacity="0"
     inkscape:pageshadow="2"
     inkscape:window-width="640"
     inkscape:window-height="480"
     id="namedview8"
     showgrid="true"
     inkscape:zoom="1.84375"
     inkscape:cx="231.39352"
     inkscape:cy="260.27602"
     inkscape:current-layer="svg6"
     inkscape:snap-bbox="true"
     inkscape:snap-bbox-midpoints="false"
     inkscape:document-rotation="0"
     inkscape:snap-grids="true"
     inkscape:bbox-nodes="true">
    <inkscape:grid
       type="xygrid"
       id="grid841"
       empspacing="8"
       spacingx="4"
       spacingy="4" />
  </sodipodi:namedview>
  <g
     class=""
     transform="translate(0,0)"
     style="touch-action: none;"
     id="g4" />
  <path
     id="path837"
     style="fill:#ffffff;fill-rule:evenodd;stroke-width:10;stroke-linejoin:round"
     d="M 248,7.9841327 V 32.128664 C 130.56813,36.325135 36.34011,130.55231 32.14258,247.98414 H 8 v 16 H 32.14453 C 36.341,381.41601 130.56817,475.64403 248,479.84156 v 24.14258 h 16 V 479.83961 C 381.43187,475.64314 475.65989,381.41597 479.85742,263.98414 H 504 v -16 H 479.85547 C 475.659,130.55227 381.43183,36.324244 264,32.126711 V 7.9841327 Z m 0,44.1582033 v 19.841797 h 16 V 52.142336 C 370.38281,56.318065 455.66607,141.60133 459.8418,247.98414 H 440 v 16 h 19.8418 C 455.66607,370.36695 370.38281,455.65021 264,459.82594 v -19.8418 h -16 v 19.8418 C 141.61719,455.65021 56.33393,370.36695 52.1582,263.98414 H 72 v -16 H 52.1582 C 56.33393,141.60133 141.61719,56.318066 248,52.142336 Z"
     sodipodi:nodetypes="cccccccccccccccccccccccccccccccccc" />
  <path
     id="path873"
     style="stroke-width:2.99999;fill:#ffffff;fill-opacity:1"
     d="m 201.46709,323.16324 c 0.402,-0.042 0.83999,-0.021 1.24799,0 4.89898,0.258 10.20296,4.84798 13.29895,12.20995 4.12498,9.81597 2.75099,20.83492 -3.04199,24.58791 -5.78998,3.75298 -13.78194,-1.146 -17.90993,-10.96496 -4.12798,-9.81596 -2.80499,-20.83192 2.98499,-24.5849 1.086,-0.705 2.21699,-1.131 3.41999,-1.248 z m 121.16052,-40.93183 c 3.36298,0.108 6.04497,1.77599 7.21797,4.93798 2.38799,6.42297 -2.26199,16.70393 -10.36496,22.9589 -8.10297,6.25498 -16.61094,6.09598 -18.99593,-0.32699 -2.38799,-6.42298 2.26199,-16.70394 10.36496,-22.95891 3.54599,-2.73599 7.16097,-4.25999 10.31396,-4.55698 0.507,-0.048 0.984,-0.069 1.464,-0.054 z M 134.49235,266.55347 c 0.402,-0.042 0.843,-0.021 1.251,0 4.89598,0.258 10.14596,4.90198 13.24194,12.26395 4.12799,9.81896 2.80499,20.78092 -2.98498,24.5339 -5.78998,3.75299 -13.83895,-1.14599 -17.96393,-10.96495 -4.12799,-9.81597 -2.75099,-20.83192 3.03899,-24.58491 1.08599,-0.70499 2.21699,-1.13099 3.41998,-1.24799 z m 42.40183,-12.92695 c 4.96198,0.129 10.37096,4.79098 13.51495,12.26695 4.12798,9.81596 2.80499,20.83492 -2.98499,24.5879 -5.78997,3.75299 -13.83594,-1.20299 -17.96393,-11.01895 -4.12798,-9.81596 -2.75099,-20.77792 3.03899,-24.53091 1.086,-0.70499 2.21699,-1.13099 3.41999,-1.25099 0.324,-0.033 0.645,-0.06 0.97499,-0.054 z m 43.58383,-15.73794 c 4.95898,0.126 10.37096,4.78798 13.51495,12.26395 4.12798,9.81896 2.80499,20.83492 -2.98499,24.58791 -5.78998,3.75298 -13.83895,-1.2 -17.96393,-11.01896 -4.12798,-9.81596 -2.75399,-20.77792 3.03899,-24.5309 1.08599,-0.705 2.21399,-1.131 3.41999,-1.248 0.32399,-0.036 0.64499,-0.063 0.97499,-0.054 z m 147.95641,-11.77795 c 3.43499,0.054 6.13198,1.72799 7.32598,4.93798 2.38799,6.42297 -2.208,16.70393 -10.31096,22.95891 -8.10297,6.25497 -16.61094,6.09897 -18.99593,-0.327 -2.38799,-6.42298 2.20799,-16.70393 10.31096,-22.95891 4.05298,-3.12599 8.23197,-4.66798 11.66995,-4.61098 z m -105.08058,-25.8359 c 2.37899,-0.018 4.94098,0.243 7.54497,0.813 10.40696,2.28299 17.73593,8.58896 16.38894,14.11194 -1.344,5.52298 -10.86596,8.14497 -21.27592,5.86198 -10.40696,-2.27999 -17.73293,-8.58597 -16.38893,-14.11195 1.00799,-4.13998 6.59697,-6.63897 13.73094,-6.67497 z M 151.48728,182.5808 c 0.402,-0.039 0.843,-0.021 1.251,0 4.89598,0.258 10.19996,4.85098 13.29595,12.21295 4.12798,9.81596 2.75099,20.83192 -3.03899,24.5849 -5.78998,3.75299 -13.83895,-1.14599 -17.96393,-10.96195 -4.12798,-9.81596 -2.75399,-20.83492 3.03899,-24.5879 1.08599,-0.702 2.21699,-1.128 3.41998,-1.248 z m 179.49529,-4.93798 c 2.37599,-0.018 4.94098,0.243 7.54497,0.813 10.40696,2.28299 17.73293,8.58896 16.38894,14.11194 -1.344,5.52298 -10.86596,8.19897 -21.27592,5.91598 -10.40696,-2.28299 -17.73593,-8.64297 -16.39193,-14.16595 1.01099,-4.14298 6.59997,-6.63897 13.73394,-6.67497 z m -103.07359,-4.50598 c 2.37899,-0.018 4.94398,0.243 7.54497,0.813 10.40696,2.28299 17.73593,8.58896 16.39194,14.11194 -1.344,5.52598 -10.86896,8.14497 -21.27592,5.86198 -10.40996,-2.28 -17.73593,-8.58597 -16.39193,-14.11195 1.00799,-4.13998 6.59697,-6.63897 13.73094,-6.67497 z M 144.86331,157.7769 c -0.216,0.057 -0.288,0.396 -0.432,1.086 l -26.92189,134.65446 c -0.312,1.401 -0.258,1.74899 1.032,2.87699 L 220.79601,384.54 C 223.175,386.81399 223.676,386.78399 224,384 l 29.79588,-136.55646 c 0.624,-1.86299 -0.018,-2.88598 -1.086,-3.74698 L 145.94631,158.4399 c -0.549,-0.465 -0.867,-0.708 -1.083,-0.651 z m 150.6684,-6.56697 c 2.37599,-0.018 4.94098,0.29699 7.54197,0.86699 10.40996,2.28299 17.73593,8.58897 16.39194,14.11195 -1.344,5.52297 -10.86896,8.14496 -21.27592,5.86197 -10.40696,-2.27999 -17.73593,-8.58896 -16.39193,-14.11194 1.00799,-4.14298 6.59997,-6.69297 13.73394,-6.72897 z m -101.98159,-5.21098 c 2.37599,-0.018 4.94098,0.243 7.54197,0.81599 10.40996,2.27999 17.73593,8.58597 16.39193,14.10895 -1.34399,5.52597 -10.86595,8.19896 -21.27591,5.91597 -10.40696,-2.27999 -17.73593,-8.63996 -16.39194,-14.16594 1.008,-4.13998 6.59998,-6.63897 13.73395,-6.67497 z m 67.30173,-20.46292 c 2.37599,-0.018 4.88698,0.246 7.48797,0.81599 10.40996,2.27999 17.78993,8.63997 16.44594,14.16595 -1.344,5.52298 -10.86596,8.14197 -21.27592,5.86197 -10.40696,-2.28299 -17.78993,-8.58896 -16.44593,-14.11194 1.00799,-4.14298 6.65397,-6.69597 13.78794,-6.73197 z m 13.62295,-10.25696 c -0.786,-0.018 -1.638,0.177 -2.71499,0.543 l -119.40853,35.06086 c -0.99299,0.234 -0.93599,0.50099 -0.108,1.13999 l 105.99558,84.62067 c 1.95299,1.61699 2.87099,1.81799 5.59198,0.97499 l 118.85953,-41.19283 c 2.72699,-1.002 2.91599,-1.248 0.108,-3.09599 l -104.31859,-76.3077 c -1.61099,-1.13399 -2.70599,-1.71299 -4.01698,-1.73699 z m -1.563,224.64811 c 3.43799,0.054 6.13498,1.67099 7.32597,4.88398 2.38799,6.42297 -2.20799,16.70393 -10.31095,22.95891 -8.10297,6.25197 -16.61094,6.14997 -18.99593,-0.273 -2.38799,-6.42298 2.20799,-16.70394 10.31096,-22.95891 4.05298,-3.12599 8.23197,-4.66798 11.66995,-4.61398 z M 388.24335,204.01872 c -0.228,0.048 -0.549,0.129 -0.921,0.27299 l -122.06952,42.34184 c -2.48699,1.02299 -2.41199,1.44299 -2.82299,3.31198 l -29.74188,136.12446 c -0.102,2.004 -0.83999,2.91599 1.518,1.845 l 120.27852,-44.93983 c 2.33399,-1.11599 2.78099,-1.31099 3.04199,-3.58198 l 31.20587,-134.22547 c 0.261,-0.94499 0.198,-1.28099 -0.48599,-1.13999 z" />
</svg>
