<?xml version="1.0" encoding="UTF-8" standalone="no"?>
<svg
   version="1.1"
   x="0px"
   y="0px"
   viewBox="0 0 1000 1000"
   enable-background="new 0 0 1000 1000"
   xml:space="preserve"
   id="svg12"
   sodipodi:docname="vision-enabled.svg"
   inkscape:version="1.2 (dc2aedaf03, 2022-05-15)"
   xmlns:inkscape="http://www.inkscape.org/namespaces/inkscape"
   xmlns:sodipodi="http://sodipodi.sourceforge.net/DTD/sodipodi-0.dtd"
   xmlns="http://www.w3.org/2000/svg"
   xmlns:svg="http://www.w3.org/2000/svg"
   xmlns:rdf="http://www.w3.org/1999/02/22-rdf-syntax-ns#"
   xmlns:cc="http://creativecommons.org/ns#"
   xmlns:dc="http://purl.org/dc/elements/1.1/"><defs
   id="defs16" /><sodipodi:namedview
   pagecolor="#bebebe"
   bordercolor="#666666"
   borderopacity="1"
   objecttolerance="10"
   gridtolerance="10"
   guidetolerance="10"
   inkscape:pageopacity="0"
   inkscape:pageshadow="2"
   inkscape:window-width="1920"
   inkscape:window-height="996"
   id="namedview14"
   showgrid="false"
   inkscape:snap-bbox="true"
   inkscape:zoom="0.71276364"
   inkscape:cx="462.98658"
   inkscape:cy="445.44921"
   inkscape:current-layer="svg12"
   inkscape:showpageshadow="2"
   inkscape:pagecheckerboard="0"
   inkscape:deskcolor="#bebebe"
   inkscape:window-x="-8"
   inkscape:window-y="-8"
   inkscape:window-maximized="1" />
<metadata
   id="metadata2"> Svg Vector Icons : http://www.onlinewebfonts.com/icon <rdf:RDF><cc:Work
     rdf:about=""><dc:format>image/svg+xml</dc:format><dc:type
       rdf:resource="http://purl.org/dc/dcmitype/StillImage" /><dc:title /></cc:Work></rdf:RDF></metadata>

<g
   id="g239"
   transform="matrix(1.2144578,0,0,1.2144578,-107.22892,-104.8886)"><path
     style="fill:#d1d4d5;fill-opacity:1;stroke:#16181b;stroke-width:20;stroke-linecap:round;stroke-linejoin:bevel;stroke-opacity:1"
     d="M 820.43651,376.98413 C 771.73051,338.13881 734.67487,318.70948 698.4127,305.55555 640.50123,284.54845 544.70303,276.78571 500,276.78571 c -44.70303,0 -140.50123,7.76274 -198.4127,28.76984 -36.26217,13.15393 -73.31781,32.58326 -122.02381,71.42858 -42.36652,33.78929 -91.269839,112.10317 -91.269839,112.10317 0,0 48.903319,78.31388 91.269839,112.10317 48.706,38.84532 85.76164,58.27465 122.02381,71.42858 57.91147,21.0071 153.70967,28.76984 198.4127,28.76984 44.70303,0 140.50123,-7.76274 198.4127,-28.76984 36.26217,-13.15393 73.31781,-32.58326 122.02381,-71.42858 42.36652,-33.78929 91.26984,-112.10317 91.26984,-112.10317 0,0 -48.90332,-78.31388 -91.26984,-112.10317 z"
     id="path346-8" /><ellipse
     style="fill:#090909;fill-opacity:1;stroke:#676b71;stroke-width:63.7092;stroke-linecap:round;stroke-linejoin:bevel;stroke-dasharray:none;stroke-opacity:1"
     id="path898"
     cx="500"
     cy="489.08731"
     rx="157.9595"
     ry="146.11255" /><ellipse
     style="fill:#d1d4d5;fill-opacity:1;stroke:none;stroke-width:17.1626;stroke-linecap:round;stroke-linejoin:bevel;stroke-opacity:1"
     id="path1784"
     cx="401.07733"
     cy="370.03906"
     rx="60.992531"
     ry="55.049992" /></g></svg>
