<?xml version="1.0" encoding="UTF-8" standalone="no"?>
<svg
   version="1.1"
   x="0px"
   y="0px"
   viewBox="0 0 1000 1000"
   enable-background="new 0 0 1000 1000"
   xml:space="preserve"
   id="svg12"
   sodipodi:docname="vision-disabled.svg"
   inkscape:version="1.2 (dc2aedaf03, 2022-05-15)"
   xmlns:inkscape="http://www.inkscape.org/namespaces/inkscape"
   xmlns:sodipodi="http://sodipodi.sourceforge.net/DTD/sodipodi-0.dtd"
   xmlns="http://www.w3.org/2000/svg"
   xmlns:svg="http://www.w3.org/2000/svg"
   xmlns:rdf="http://www.w3.org/1999/02/22-rdf-syntax-ns#"
   xmlns:cc="http://creativecommons.org/ns#"
   xmlns:dc="http://purl.org/dc/elements/1.1/"><defs
   id="defs16" /><sodipodi:namedview
   pagecolor="#bebebe"
   bordercolor="#666666"
   borderopacity="1"
   objecttolerance="10"
   gridtolerance="10"
   guidetolerance="10"
   inkscape:pageopacity="0"
   inkscape:pageshadow="2"
   inkscape:window-width="1920"
   inkscape:window-height="996"
   id="namedview14"
   showgrid="false"
   inkscape:snap-bbox="true"
   inkscape:zoom="1.008"
   inkscape:cx="500.99206"
   inkscape:cy="545.13889"
   inkscape:current-layer="svg12"
   inkscape:showpageshadow="2"
   inkscape:pagecheckerboard="0"
   inkscape:deskcolor="#bebebe"
   inkscape:window-x="-8"
   inkscape:window-y="-8"
   inkscape:window-maximized="1" />
<metadata
   id="metadata2"> Svg Vector Icons : http://www.onlinewebfonts.com/icon <rdf:RDF><cc:Work
     rdf:about=""><dc:format>image/svg+xml</dc:format><dc:type
       rdf:resource="http://purl.org/dc/dcmitype/StillImage" /><dc:title /></cc:Work></rdf:RDF></metadata>

<path
   style="fill:#1f2227;fill-opacity:1;stroke:#16181b;stroke-width:24.2892;stroke-linecap:round;stroke-linejoin:bevel;stroke-opacity:1"
   d="m 889.1566,352.94272 c -59.15138,-47.176 -104.15389,-70.77211 -148.19277,-86.747 -70.33104,-25.51224 -186.67391,-34.93976 -240.96385,-34.93976 -54.28994,0 -170.63281,9.42752 -240.96385,34.93976 -44.03888,15.97489 -89.04139,39.571 -148.19277,86.747 C 59.39101,393.97838 -6.8525722e-6,489.08729 -6.8525722e-6,489.08729 c 0,0 59.3910168525722,95.1089 110.8433668525722,136.14457 59.15138,47.176 104.15389,70.7721 148.19277,86.74699 70.33104,25.51224 186.67391,34.93976 240.96385,34.93976 54.28994,0 170.63281,-9.42752 240.96385,-34.93976 44.03888,-15.97489 89.04139,-39.57099 148.19277,-86.74699 51.45235,-41.03567 110.84337,-136.14457 110.84337,-136.14457 0,0 -59.39102,-95.10891 -110.84337,-136.14457 z"
   id="path346-8" /><path
   style="fill:none;fill-opacity:1;stroke:#49505a;stroke-width:47.546;stroke-linecap:round;stroke-linejoin:bevel;stroke-dasharray:none;stroke-opacity:1"
   d="m 37.912533,483.00859 c 0,0 54.887692,84.20703 102.438657,120.53897 54.66623,41.76844 96.25643,62.65989 136.95604,76.80364 64.99818,22.58789 172.51935,30.93473 222.69275,30.93473 50.1734,0 157.69457,-8.34684 222.69275,-30.93473 40.69961,-14.14375 82.28981,-35.0352 136.95604,-76.80364 47.55096,-36.33194 102.43866,-120.53897 102.43866,-120.53897"
   id="path1080"
   sodipodi:nodetypes="csssssc" /></svg>
