<?xml version="1.0" encoding="UTF-8" standalone="no"?>
<svg
   xmlns:dc="http://purl.org/dc/elements/1.1/"
   xmlns:cc="http://creativecommons.org/ns#"
   xmlns:rdf="http://www.w3.org/1999/02/22-rdf-syntax-ns#"
   xmlns:svg="http://www.w3.org/2000/svg"
   xmlns="http://www.w3.org/2000/svg"
   xmlns:sodipodi="http://sodipodi.sourceforge.net/DTD/sodipodi-0.dtd"
   xmlns:inkscape="http://www.inkscape.org/namespaces/inkscape"
   viewBox="0 0 512 512"
   width="512"
   height="512"
   version="1.1"
   id="svg6"
   sodipodi:docname="weapon-template.svg"
   inkscape:version="1.0.2-2 (e86c870879, 2021-01-15)">
  <metadata
     id="metadata12">
    <rdf:RDF>
      <cc:Work
         rdf:about="">
        <dc:format>image/svg+xml</dc:format>
        <dc:type
           rdf:resource="http://purl.org/dc/dcmitype/StillImage" />
        <dc:title></dc:title>
      </cc:Work>
    </rdf:RDF>
  </metadata>
  <defs
     id="defs10" />
  <sodipodi:namedview
     pagecolor="#858585"
     bordercolor="#666666"
     borderopacity="1"
     objecttolerance="10"
     gridtolerance="10"
     guidetolerance="10"
     inkscape:pageopacity="0"
     inkscape:pageshadow="2"
     inkscape:window-width="640"
     inkscape:window-height="480"
     id="namedview8"
     showgrid="true"
     inkscape:zoom="0.92187498"
     inkscape:cx="173.88381"
     inkscape:cy="254.65447"
     inkscape:current-layer="layer3"
     inkscape:snap-bbox="true"
     inkscape:snap-bbox-edge-midpoints="false"
     inkscape:snap-bbox-midpoints="true"
     inkscape:snap-global="true"
     inkscape:document-rotation="0"
     inkscape:snap-to-guides="true">
    <inkscape:grid
       type="xygrid"
       id="grid1023"
       spacingx="4"
       spacingy="4"
       enabled="true"
       empspacing="8" />
  </sodipodi:namedview>
  <g
     inkscape:groupmode="layer"
     id="layer3"
     inkscape:label="Layer 2"
     style="display:inline">
    <path
       id="path859"
       style="fill:#505050;fill-opacity:1;fill-rule:evenodd;stroke:none;stroke-width:40;stroke-opacity:1"
       d="M 256 32 A 224 224 0 0 0 32 256 A 224 224 0 0 0 256 480 A 224 224 0 0 0 480 256 A 224 224 0 0 0 256 32 z M 256 224 A 32 32 0 0 1 288 256 A 32 32 0 0 1 256 288 A 32 32 0 0 1 224 256 A 32 32 0 0 1 256 224 z " />
    <circle
       style="fill:none;fill-opacity:1;fill-rule:evenodd;stroke:#000000;stroke-width:20;stroke-miterlimit:4;stroke-dasharray:none;stroke-opacity:1"
       id="path866"
       cx="256"
       cy="256"
       r="32" />
  </g>
  <g
     inkscape:groupmode="layer"
     id="layer1"
     inkscape:label="Layer 1"
     style="display:inline">
    <path
       style="fill:none;fill-rule:evenodd;stroke:#000000;stroke-width:40;stroke-opacity:1"
       d="M 32,224 C 32,128 128,32 224,32 m 64,0 c 96,0 192,96 192,192 m 0,64 c 0,96 -96,192 -192,192 m -64,0 C 128,480 32,384 32,288"
       id="path842"
       sodipodi:nodetypes="cccccccc" />
  </g>
</svg>
