<?xml version="1.0" encoding="UTF-8" standalone="no"?>
<svg
   xmlns:dc="http://purl.org/dc/elements/1.1/"
   xmlns:cc="http://creativecommons.org/ns#"
   xmlns:rdf="http://www.w3.org/1999/02/22-rdf-syntax-ns#"
   xmlns:svg="http://www.w3.org/2000/svg"
   xmlns="http://www.w3.org/2000/svg"
   xmlns:sodipodi="http://sodipodi.sourceforge.net/DTD/sodipodi-0.dtd"
   xmlns:inkscape="http://www.inkscape.org/namespaces/inkscape"
   viewBox="0 0 512 512"
   width="512"
   height="512"
   version="1.1"
   id="svg6"
   sodipodi:docname="afraid.svg"
   inkscape:version="1.0.2-2 (e86c870879, 2021-01-15)">
  <metadata
     id="metadata12">
    <rdf:RDF>
      <cc:Work
         rdf:about="">
        <dc:format>image/svg+xml</dc:format>
        <dc:type
           rdf:resource="http://purl.org/dc/dcmitype/StillImage" />
        <dc:title />
      </cc:Work>
    </rdf:RDF>
  </metadata>
  <defs
     id="defs10" />
  <sodipodi:namedview
     pagecolor="#afafaf"
     bordercolor="#666666"
     borderopacity="1"
     objecttolerance="10"
     gridtolerance="10"
     guidetolerance="10"
     inkscape:pageopacity="0"
     inkscape:pageshadow="2"
     inkscape:window-width="640"
     inkscape:window-height="480"
     id="namedview8"
     showgrid="true"
     inkscape:zoom="1.3921165"
     inkscape:cx="267.44272"
     inkscape:cy="219.77171"
     inkscape:current-layer="svg6"
     inkscape:document-rotation="0"
     inkscape:snap-to-guides="true"
     inkscape:snap-bbox="true"
     inkscape:bbox-nodes="true"
     inkscape:snap-grids="true"
     inkscape:snap-object-midpoints="true">
    <inkscape:grid
       type="xygrid"
       id="grid831"
       empspacing="8"
       spacingy="4"
       spacingx="4" />
  </sodipodi:namedview>
  <g
     id="g836"
     transform="matrix(1.2190678,0,0,1.2190678,-56.081357,-39.366291)">
    <path
       id="path833"
       style="fill:#ffffff;fill-opacity:1;fill-rule:evenodd;stroke-width:10;stroke-linejoin:round"
       d="m 256,51.753906 c -22.14529,0 -44.29057,4.082181 -64,12.246094 -13.93667,5.772758 -21.33333,21.333333 -32,32 -10.66667,10.66667 -24.56767,18.87308 -32,32 -16.25159,28.70341 -19.9698,63.26229 -24,96 -1.30329,10.58675 -1.9032,21.5045 0,32 8,16 8,16 24,32 19.06766,43.72619 23.42159,102.92116 64,128 36.29443,22.43119 91.70557,22.43119 128,0 40.57841,-25.07884 44.93234,-84.27381 64,-128 16,-16 16,-16 24,-32 1.9032,-10.4955 1.30329,-21.41325 0,-32 -4.0302,-32.73771 -7.74841,-67.29659 -24,-96 C 376.56767,114.87308 362.66667,106.66667 352,96 341.33333,85.333333 333.93667,69.772758 320,64 300.29057,55.836087 278.14529,51.753906 256,51.753906 Z M 190.02148,153.33398 c 12.37113,0 24.74153,14.90826 28.86524,24.84766 4.12371,9.93939 4.12355,24.84866 -0.51563,29.81836 -7.12533,12.7488 -11.84055,11.9306 -17.00976,13.66602 -7.21649,1.24242 -19.58867,2.46699 -28.35156,0 C 167.88202,221.36383 162.06408,215.64534 156,208 c -4.61274,-11.72486 -3.09278,-19.87944 0,-27.33398 7.73591,-17.84928 17.65216,-25.62656 34.02148,-27.33204 z m 131.95704,0 c 16.36932,1.70548 26.28557,9.48276 34.02148,27.33204 3.09278,7.45454 4.61274,15.60912 0,27.33398 -6.06408,7.64534 -11.88202,13.36383 -17.00977,13.66602 -8.76289,2.46699 -21.13507,1.24242 -28.35156,0 -5.16921,-1.73542 -9.88443,-0.91722 -17.00976,-13.66602 -4.63918,-4.9697 -4.63934,-19.87897 -0.51563,-29.81836 4.12371,-9.9394 16.49411,-24.84766 28.86524,-24.84766 z M 224,256 c 8,0 12,4 16,5.96825 16,2.03175 16,2.03175 32,0 C 276,260 280,256 288,256 c 4,4 4,4 0,8 l -12,8 c -20,4 -20,4 -40,0 l -12,-8 c -4,-4 -4,-4 0,-8 z m 32,56 c 16,0 30.78209,5.51562 44.19141,8 14.20108,3.26189 22.70209,14.26908 31.49023,24.88867 9.59165,14.48763 1.61269,22.19336 -3.55469,30.98438 C 318.70452,386.51601 307.45352,377.621 296,372 c -12.41224,-0.81727 -24,-4 -40,-4 -16,0 -27.58776,3.18273 -40,4 -11.45352,5.621 -22.70452,14.51601 -32.12695,3.87305 -5.16738,-8.79102 -13.14634,-16.49675 -3.55469,-30.98438 C 189.1065,334.26908 197.60751,323.26189 211.80859,320 225.21791,317.51562 240,312 256,312 Z"
       sodipodi:nodetypes="sssssccssccssssscsccccccccccccsccccccccccsccccsccccs" />
    <circle
       style="fill:#ffffff;fill-opacity:1;fill-rule:evenodd;stroke-width:10;stroke-linejoin:round"
       id="path863"
       cx="188"
       cy="192"
       r="16" />
    <circle
       style="fill:#ffffff;fill-opacity:1;fill-rule:evenodd;stroke-width:10;stroke-linejoin:round"
       id="path863-2"
       cx="324"
       cy="192"
       r="16" />
  </g>
</svg>
