<?xml version="1.0" encoding="UTF-8" standalone="no"?>
<svg
   viewBox="0 0 512 512"
   width="512"
   height="512"
   version="1.1"
   id="svg6"
   sodipodi:docname="burning.svg"
   inkscape:version="1.2.2 (732a01da63, 2022-12-09)"
   xml:space="preserve"
   xmlns:inkscape="http://www.inkscape.org/namespaces/inkscape"
   xmlns:sodipodi="http://sodipodi.sourceforge.net/DTD/sodipodi-0.dtd"
   xmlns="http://www.w3.org/2000/svg"
   xmlns:svg="http://www.w3.org/2000/svg"
   xmlns:rdf="http://www.w3.org/1999/02/22-rdf-syntax-ns#"
   xmlns:cc="http://creativecommons.org/ns#"
   xmlns:dc="http://purl.org/dc/elements/1.1/"><metadata
     id="metadata12"><rdf:RDF><cc:Work
         rdf:about=""><dc:format>image/svg+xml</dc:format><dc:type
           rdf:resource="http://purl.org/dc/dcmitype/StillImage" /></cc:Work></rdf:RDF></metadata><defs
     id="defs10" /><sodipodi:namedview
     pagecolor="#afafaf"
     bordercolor="#666666"
     borderopacity="1"
     objecttolerance="10"
     gridtolerance="10"
     guidetolerance="10"
     inkscape:pageopacity="0"
     inkscape:pageshadow="2"
     inkscape:window-width="1920"
     inkscape:window-height="996"
     id="namedview8"
     showgrid="true"
     inkscape:zoom="0.49218751"
     inkscape:cx="152.38095"
     inkscape:cy="482.53967"
     inkscape:current-layer="svg6"
     inkscape:document-rotation="0"
     inkscape:snap-to-guides="true"
     inkscape:snap-bbox="true"
     inkscape:bbox-nodes="true"
     inkscape:snap-grids="true"
     inkscape:snap-object-midpoints="true"
     inkscape:showpageshadow="0"
     inkscape:pagecheckerboard="0"
     inkscape:deskcolor="#afafaf"
     inkscape:window-x="-8"
     inkscape:window-y="-8"
     inkscape:window-maximized="1"><inkscape:grid
       type="xygrid"
       id="grid831"
       empspacing="8"
       spacingy="4"
       spacingx="4" /></sodipodi:namedview><path
     style="fill:#ffffff"
     d="m 44,320 28,64 96,64 96,32 96,-32 96,-64 24,-64 V 288 H 32 Z"
     id="path333"
     sodipodi:nodetypes="cccccccccc" /><path
     style="fill:#ffffff"
     d="m 252,284 h -16 v -36 h 16 z"
     id="path389"
     sodipodi:nodetypes="ccccc" /><path
     style="fill:#ffffff"
     d="M 384,52 H 96 C 47.19411,122.78268 59.876547,185.02017 96,244 H 384 C 344.79754,182.80804 337.98315,119.29614 384,52 Z"
     id="path555"
     sodipodi:nodetypes="ccccc" /><path
     style="fill:#ffffff"
     d="M 252,48 H 236 V 24 h 16 z"
     id="path389-9"
     sodipodi:nodetypes="ccccc" /><path
     d="M 166.23464,0.662893 C -2.570078,98.59894 213.96699,209.37831 156.87985,305.88222 124.67516,360.32264 52.297242,279.87243 57.474964,189.49181 11.770557,305.5095 45.04476,388.47145 104.72625,433.45979 c 1.2724,0.31214 16.13631,0.45718 37.81022,0.51594 -26.14382,-15.5148 -29.43223,-69.17858 30.12351,-94.78718 l 14.48659,-6.42626 -2.69626,15.54969 c -1.24486,7.65643 -0.29194,12.8066 1.09062,15.54877 1.38348,2.74218 2.85142,3.25352 5.365,3.75844 5.02625,1.00985 15.57265,-2.19869 24.12598,-13.42535 17.10851,-22.4524 26.73046,-73.65217 -24.67128,-153.31195 l -3.75845,-5.9094 -12.76619,-17.67219 21.34431,9.09315 L 200,188 c 74.22319,23.40808 124.21022,53.66837 160.31198,103.48098 19.77817,-21.02851 35.52799,-52.17655 40.22097,-84.17468 l 3.21313,-25.21661 12.33656,22.00532 c 23.43286,42.04787 27.78619,96.31295 10.18469,143.67258 -13.06365,35.1424 -38.59055,66.4107 -77.115,85.83634 12.5064,-0.009 22.07876,0.0293 23.18042,0.11383 142.0752,-31.92009 127.92368,-224.87467 -13.02694,-361.791432 0.0113,0.6665 0,1.34034 0,2.008665 C 431.79758,244.57028 234.02607,247.53921 249.83005,84.46486 211.56081,176.69348 127.85984,82.49384 166.23372,0.663812 Z m 98.11324,285.452177 c 12.40265,14.51047 20.51809,30.37413 20.91285,46.64722 0.53889,22.0604 -8.5313,43.25785 -22.51942,61.10722 -13.6163,17.37473 -31.9816,31.78239 -51.98377,40.07776 30.41178,-0.0597 59.60439,-0.14688 87.4126,-0.22951 l -0.057,-0.17075 c 28.4132,-17.06077 43.43228,-35.64733 49.34442,-53.07439 5.91214,-17.42617 2.98361,-34.19317 -5.36501,-49.31505 -14.17447,-25.67745 -45.63096,-43.79948 -77.74477,-45.04067 z"
     fill="#ffffff"
     fill-opacity="1"
     id="path116"
     style="fill:#ff0000;stroke-width:0.918036" /><path
     style="fill:#0000ff;stroke-width:0.433013"
     d="m 0,416 32,12 32,-12 32,12 32,-12 32,12 32,-12 32,12 32,-12 32,12 32,-12 32,12 32,-12 32,12 32,-12 32,12 32,-12 v 96 H 0 Z"
     id="path232" /></svg>
