<?xml version="1.0" encoding="UTF-8" standalone="no"?>
<svg
   viewBox="0 0 512 512"
   width="512"
   height="512"
   version="1.1"
   id="svg6"
   sodipodi:docname="capsized.svg"
   inkscape:version="1.2.2 (732a01da63, 2022-12-09)"
   xmlns:inkscape="http://www.inkscape.org/namespaces/inkscape"
   xmlns:sodipodi="http://sodipodi.sourceforge.net/DTD/sodipodi-0.dtd"
   xmlns="http://www.w3.org/2000/svg"
   xmlns:svg="http://www.w3.org/2000/svg"
   xmlns:rdf="http://www.w3.org/1999/02/22-rdf-syntax-ns#"
   xmlns:cc="http://creativecommons.org/ns#"
   xmlns:dc="http://purl.org/dc/elements/1.1/">
  <metadata
     id="metadata12">
    <rdf:RDF>
      <cc:Work
         rdf:about="">
        <dc:format>image/svg+xml</dc:format>
        <dc:type
           rdf:resource="http://purl.org/dc/dcmitype/StillImage" />
      </cc:Work>
    </rdf:RDF>
  </metadata>
  <defs
     id="defs10" />
  <sodipodi:namedview
     pagecolor="#afafaf"
     bordercolor="#666666"
     borderopacity="1"
     objecttolerance="10"
     gridtolerance="10"
     guidetolerance="10"
     inkscape:pageopacity="0"
     inkscape:pageshadow="2"
     inkscape:window-width="1920"
     inkscape:window-height="996"
     id="namedview8"
     showgrid="true"
     inkscape:zoom="0.98437502"
     inkscape:cx="383.99999"
     inkscape:cy="245.33333"
     inkscape:current-layer="svg6"
     inkscape:document-rotation="0"
     inkscape:snap-to-guides="true"
     inkscape:snap-bbox="true"
     inkscape:bbox-nodes="true"
     inkscape:snap-grids="true"
     inkscape:snap-object-midpoints="true"
     inkscape:showpageshadow="0"
     inkscape:pagecheckerboard="0"
     inkscape:deskcolor="#afafaf"
     inkscape:window-x="-8"
     inkscape:window-y="-8"
     inkscape:window-maximized="1">
    <inkscape:grid
       type="xygrid"
       id="grid831"
       empspacing="8"
       spacingy="4"
       spacingx="4" />
  </sodipodi:namedview>
  <path
     style="fill:#ffffff"
     d="m 135.44741,64.82342 -54.572323,43.61034 -36.972625,109.2933 -6.062998,101.01109 55.756255,84.44667 86.665881,76.16446 68.03091,6.6178 30.90963,-8.28221 L 163.2512,44.950101 Z"
     id="path333"
     sodipodi:nodetypes="cccccccccc" />
  <path
     style="fill:#ffffff"
     d="m 224.0551,256.41851 -4.14111,-15.45482 34.77333,-9.31748 4.14111,15.45481 z"
     id="path389"
     sodipodi:nodetypes="ccccc" />
  <path
     style="fill:#ffffff"
     d="M 482.314,323.8747 407.77412,45.688059 C 326.77141,16.865095 269.93706,45.223636 222.31636,95.381315 L 296.85624,373.56795 C 345.8168,319.86364 405.40089,296.84336 482.314,323.8747 Z"
     id="path555"
     sodipodi:nodetypes="ccccc" />
  <path
     style="fill:#ffffff"
     d="m 452.01359,195.33721 -4.1411,-15.45481 23.18222,-6.21166 4.1411,15.45481 z"
     id="path389-9"
     sodipodi:nodetypes="ccccc" />
  <path
     style="fill:#0000ff;stroke-width:0.579602"
     d="m 0,340 32,21.5 32,-21.5 32,21.5 32,-21.5 32,21.5 32,-21.5 32,21.5 32,-21.5 32,21.5 32,-21.5 32,21.5 32,-21.5 32,21.5 32,-21.5 32,21.5 32,-21.5 V 512 H 0 Z"
     id="path232" />
</svg>
