<?xml version="1.0" encoding="UTF-8" standalone="no"?>
<svg
   xmlns:dc="http://purl.org/dc/elements/1.1/"
   xmlns:cc="http://creativecommons.org/ns#"
   xmlns:rdf="http://www.w3.org/1999/02/22-rdf-syntax-ns#"
   xmlns:svg="http://www.w3.org/2000/svg"
   xmlns="http://www.w3.org/2000/svg"
   xmlns:sodipodi="http://sodipodi.sourceforge.net/DTD/sodipodi-0.dtd"
   xmlns:inkscape="http://www.inkscape.org/namespaces/inkscape"
   viewBox="0 0 512 512"
   width="512"
   height="512"
   version="1.1"
   id="svg6"
   sodipodi:docname="dying.svg"
   inkscape:version="1.0.2-2 (e86c870879, 2021-01-15)">
  <metadata
     id="metadata12">
    <rdf:RDF>
      <cc:Work
         rdf:about="">
        <dc:format>image/svg+xml</dc:format>
        <dc:type
           rdf:resource="http://purl.org/dc/dcmitype/StillImage" />
        <dc:title />
      </cc:Work>
    </rdf:RDF>
  </metadata>
  <defs
     id="defs10" />
  <sodipodi:namedview
     pagecolor="#b9b9b9"
     bordercolor="#666666"
     borderopacity="1"
     objecttolerance="10"
     gridtolerance="10"
     guidetolerance="10"
     inkscape:pageopacity="0"
     inkscape:pageshadow="2"
     inkscape:window-width="640"
     inkscape:window-height="480"
     id="namedview8"
     showgrid="true"
     inkscape:snap-bbox="true"
     inkscape:bbox-nodes="true"
     inkscape:snap-page="true"
     inkscape:zoom="1.2988593"
     inkscape:cx="264.29006"
     inkscape:cy="286.11046"
     inkscape:current-layer="g845"
     inkscape:document-rotation="0"
     inkscape:snap-grids="true"
     inkscape:snap-to-guides="true"
     inkscape:snap-object-midpoints="true">
    <inkscape:grid
       type="xygrid"
       id="grid832"
       empspacing="8"
       spacingx="4"
       spacingy="4" />
  </sodipodi:namedview>
  <g
     id="g845"
     transform="translate(0,8)">
    <g
       id="g849"
       transform="matrix(1.2913558,0,0,1.2913558,-74.587085,-51.967294)">
      <path
         id="path833"
         style="fill:#ffffff;fill-opacity:1;fill-rule:evenodd;stroke-width:10;stroke-linejoin:round"
         d="m 256,51.753906 c -22.14529,0 -44.29057,4.082181 -64,12.246094 -13.93667,5.772758 -21.33333,21.333333 -32,32 -10.66667,10.66667 -24.56767,18.87308 -32,32 -16.25159,28.70341 -19.9698,63.26229 -24,96 -1.30329,10.58675 -1.9032,21.5045 0,32 8,16 8,16 24,32 19.06766,43.72619 23.42159,82.92116 64,108 36.29443,22.43119 91.70557,22.43119 128,0 40.57841,-25.07884 44.93234,-64.27381 64,-108 16,-16 16,-16 24,-32 1.9032,-10.4955 1.30329,-21.41325 0,-32 -4.0302,-32.73771 -7.74841,-67.29659 -24,-96 C 376.56767,114.87308 362.66667,106.66667 352,96 341.33333,85.333333 333.93667,69.772758 320,64 300.29057,55.836087 278.14529,51.753906 256,51.753906 Z M 188,200 c 6.79677,0.16174 14.59703,0.12676 20,-4 7.10807,-5.42912 12,-24 12,-24 4.12371,9.93939 4.02004,25.36428 -0.61914,30.33398 -7.12533,12.7488 -11.84055,11.9306 -17.00976,13.66602 -7.21649,1.24242 -19.58867,2.46699 -28.35156,0 -5.12775,-0.30219 -10.94569,-6.02068 -17.00977,-13.66602 C 152.39703,190.60912 152.90722,179.45454 156,172 c 0,0 8.14071,18.46141 16,24 4.49372,3.16681 10.50408,3.86922 16,4 z m 136,0 c 5.49592,-0.13078 11.50628,-0.83319 16,-4 7.85929,-5.53859 16,-24 16,-24 3.09278,7.45454 5.62251,18.60912 1.00977,30.33398 C 350.94569,209.97932 345.12775,215.69781 340,216 c -8.76289,2.46699 -21.13507,1.24242 -28.35156,0 -5.16921,-1.73542 -9.88443,-0.91722 -17.00976,-13.66602 C 289.9995,197.36428 287.87629,181.93939 292,172 c 0,0 4.89193,18.57088 12,24 5.40297,4.12676 13.20323,4.16174 20,4 z m -100,56 c 8,0 12,4 16,5.96825 16,2.03175 16,2.03175 32,0 C 276,260 280,256 288,256 c 4,4 4,4 0,8 l -12,8 c -20,4 -20,4 -40,0 l -12,-8 c -4,-4 -4,-4 0,-8 z m 32,56 c 16,0 30.78209,5.51562 44.19141,8 14.20108,3.26189 15.02045,1.38041 23.80859,12 l 4.57226,11.11133 C 319.14983,353.75429 307.45352,329.621 296,324 c -12.41224,-0.81727 -24,-4 -40,-4 -16,0 -27.58776,3.18273 -40,4 -11.45352,5.621 -22.25921,29.75429 -31.68164,19.11133 L 188,332 c 8.78814,-10.61959 9.60751,-8.73811 23.80859,-12 C 225.21791,317.51562 240,312 256,312 Z"
         sodipodi:nodetypes="sssssccccccsssssccccccccccssccccccsscccccccccscccccccccs" />
      <path
         style="fill:#c70000;fill-rule:evenodd;stroke-width:10;stroke-linejoin:round"
         d="m 224,264 -4,12 v 32 l 2.20417,2.65313 L 228,308 l 4,-28 4,-8"
         id="path852"
         sodipodi:nodetypes="ccccccc" />
      <path
         style="fill:#c70000;fill-rule:evenodd;stroke:none;stroke-width:7;stroke-linecap:round;stroke-linejoin:miter;stroke-miterlimit:4;stroke-dasharray:none;stroke-opacity:1"
         d="m 196,260 32,-44 20,-26.12457 4,-17.87543 44,-44 4,4 -8,16 -16,24 -13.92849,20 L 248,216 Z"
         id="path854"
         sodipodi:nodetypes="ccccccccccc" />
      <path
         style="fill:#c70000;fill-rule:evenodd;stroke:none;stroke-width:7;stroke-linecap:round;stroke-linejoin:miter;stroke-miterlimit:4;stroke-dasharray:none;stroke-opacity:1"
         d="M 199.03762,340 208,372 l 4,24 v 9.53981 c 2.84435,1.133 4.87818,1.70383 7.66317,2.46019 2.73105,0.71571 5.39306,1.50047 8.33683,2.00346 L 224,388 212,350.00645 204,334.70078"
         id="path858"
         sodipodi:nodetypes="ccccccccc" />
      <path
         style="fill:#c70000;fill-rule:evenodd;stroke:none;stroke-width:7;stroke-linecap:round;stroke-linejoin:miter;stroke-miterlimit:4;stroke-dasharray:none;stroke-opacity:1"
         d="M 313.53677,340 306.61592,366.2127 308,384 l 4,16.47636 c -5.02881,2.79032 -10.4285,4.78487 -16,6.41079 L 288,396 284,364 V 322.67711 L 296,324 c 3.0414,0.54971 10.22492,8.1654 17.53677,16 z"
         id="path858-9"
         sodipodi:nodetypes="cccccccccc" />
      <path
         style="fill:#c70000;fill-rule:evenodd;stroke:none;stroke-width:7;stroke-linecap:round;stroke-linejoin:miter;stroke-miterlimit:4;stroke-dasharray:none;stroke-opacity:1"
         d="m 328,217.79239 c -1.06518,-0.59746 8,-1.19493 12,-1.79239 l 9.91696,12 L 356,244 v 20 l -4,9.7301 L 348,272 v -12 l -4,-16 -12,-16 z"
         id="path880"
         sodipodi:nodetypes="ccccccccccc" />
      <path
         style="fill:#c70000;fill-rule:evenodd;stroke:none;stroke-width:7;stroke-linecap:round;stroke-linejoin:miter;stroke-miterlimit:4;stroke-dasharray:none;stroke-opacity:1"
         d="m 296,104 h -24 l -32,8 -48,12 -28,24 -8,12 16,-4 12,-20 20,-8 44,-8 c 0,0 44,-4 48,-4 4,0 20,-12 20,-12 z"
         id="path882" />
      <path
         style="fill:#c70000;fill-rule:evenodd;stroke:none;stroke-width:7;stroke-linecap:round;stroke-linejoin:miter;stroke-miterlimit:4;stroke-dasharray:none;stroke-opacity:1"
         d="m 154.01817,180 -7.8322,10.92455 L 140,200 132,212 129.24803,229.03492 132,233.75059 136,232 l 1.90948,-10.85662 3.65704,-11.98852 3.56083,-6.84514 L 155.02922,196 c -1.04509,-4.32741 -0.71536,-13.29801 -1.01105,-16 z"
         id="path884"
         sodipodi:nodetypes="cccccccccccc" />
      <path
         style="fill:#c70000;fill-rule:evenodd;stroke:none;stroke-width:7;stroke-linecap:round;stroke-linejoin:miter;stroke-miterlimit:4;stroke-dasharray:none;stroke-opacity:1"
         d="m 152,268 12,8 8,16 4,12 h 4 v -8 l -8,-16 -8,-12 -8,-5.48558 z"
         id="path886"
         sodipodi:nodetypes="cccccccccc" />
    </g>
  </g>
</svg>
