<?xml version="1.0" encoding="UTF-8" standalone="no"?>
<svg
   viewBox="0 0 512 512"
   width="512"
   height="512"
   version="1.1"
   id="svg6"
   sodipodi:docname="haunted.svg"
   inkscape:version="1.2.2 (732a01da63, 2022-12-09)"
   xmlns:inkscape="http://www.inkscape.org/namespaces/inkscape"
   xmlns:sodipodi="http://sodipodi.sourceforge.net/DTD/sodipodi-0.dtd"
   xmlns="http://www.w3.org/2000/svg"
   xmlns:svg="http://www.w3.org/2000/svg"
   xmlns:rdf="http://www.w3.org/1999/02/22-rdf-syntax-ns#"
   xmlns:cc="http://creativecommons.org/ns#"
   xmlns:dc="http://purl.org/dc/elements/1.1/">
  <metadata
     id="metadata12">
    <rdf:RDF>
      <cc:Work
         rdf:about="">
        <dc:format>image/svg+xml</dc:format>
        <dc:type
           rdf:resource="http://purl.org/dc/dcmitype/StillImage" />
      </cc:Work>
    </rdf:RDF>
  </metadata>
  <defs
     id="defs10" />
  <sodipodi:namedview
     pagecolor="#afafaf"
     bordercolor="#666666"
     borderopacity="1"
     objecttolerance="10"
     gridtolerance="10"
     guidetolerance="10"
     inkscape:pageopacity="0"
     inkscape:pageshadow="2"
     inkscape:window-width="1920"
     inkscape:window-height="996"
     id="namedview8"
     showgrid="true"
     inkscape:zoom="0.69605825"
     inkscape:cx="773.64215"
     inkscape:cy="384.30692"
     inkscape:current-layer="svg6"
     inkscape:document-rotation="0"
     inkscape:snap-to-guides="true"
     inkscape:snap-bbox="true"
     inkscape:bbox-nodes="true"
     inkscape:snap-grids="true"
     inkscape:snap-object-midpoints="true"
     inkscape:showpageshadow="0"
     inkscape:pagecheckerboard="0"
     inkscape:deskcolor="#afafaf"
     inkscape:window-x="-8"
     inkscape:window-y="-8"
     inkscape:window-maximized="1">
    <inkscape:grid
       type="xygrid"
       id="grid831"
       empspacing="8"
       spacingy="4"
       spacingx="4" />
  </sodipodi:namedview>
  <path
     style="fill:#ffffff"
     d="m 44,320 28,64 96,64 96,32 96,-32 96,-64 24,-64 V 288 H 32 Z"
     id="path333"
     sodipodi:nodetypes="cccccccccc" />
  <path
     style="fill:#ffffff"
     d="m 252,284 h -16 v -36 h 16 z"
     id="path389"
     sodipodi:nodetypes="ccccc" />
  <path
     style="fill:#ffffff"
     d="M 384,52 H 96 C 47.19411,122.78268 59.876547,185.02017 96,244 H 384 C 344.79754,182.80804 337.98315,119.29614 384,52 Z"
     id="path555"
     sodipodi:nodetypes="ccccc" />
  <path
     style="fill:#ffffff"
     d="M 252,48 H 236 V 24 h 16 z"
     id="path389-9"
     sodipodi:nodetypes="ccccc" />
  <path
     style="fill:#0000ff;stroke-width:0.433013"
     d="m 0,416 32,12 32,-12 32,12 32,-12 32,12 32,-12 32,12 32,-12 32,12 32,-12 32,12 32,-12 32,12 32,-12 32,12 32,-12 v 96 H 0 Z"
     id="path232" />
  <path
     style="fill:#800000"
     d="m 96,160 c 20.38088,5.47275 41.58758,5.20632 64,0 v 32 c -22.80274,-5.08078 -43.90444,-5.6136 -64,0 z"
     id="path217"
     sodipodi:nodetypes="ccccc" />
  <path
     style="fill:#800000"
     d="m 256,160 c 19.82553,4.89861 40.78654,5.75106 64,0 v 32 c -21.85291,-6.55289 -42.82391,-4.09488 -64,0 z"
     id="path219"
     sodipodi:nodetypes="ccccc" />
  <path
     style="fill:#800000"
     d="m 80,320 c 94.35858,41.36379 190.25583,43.95334 288,0 v 32 c -95.33107,42.14216 -191.31446,43.18854 -288,0 z"
     id="path324"
     sodipodi:nodetypes="ccccc" />
  <path
     style="fill:#800000;stroke-width:0.79057"
     d="m 91.433519,101.91983 77.274071,20.70553 -4.14111,15.45481 -77.274065,-20.70553 z"
     id="path434" />
  <path
     style="fill:#800000;stroke-width:0.79057"
     d="m 324.56648,101.91983 -77.27407,20.70553 4.14111,15.45481 77.27407,-20.70553 z"
     id="path434-6" />
</svg>
