<?xml version="1.0" encoding="UTF-8" standalone="no"?>
<svg
   xmlns:dc="http://purl.org/dc/elements/1.1/"
   xmlns:cc="http://creativecommons.org/ns#"
   xmlns:rdf="http://www.w3.org/1999/02/22-rdf-syntax-ns#"
   xmlns:svg="http://www.w3.org/2000/svg"
   xmlns="http://www.w3.org/2000/svg"
   xmlns:sodipodi="http://sodipodi.sourceforge.net/DTD/sodipodi-0.dtd"
   xmlns:inkscape="http://www.inkscape.org/namespaces/inkscape"
   viewBox="0 0 512 512"
   width="512"
   height="512"
   version="1.1"
   id="svg6"
   sodipodi:docname="overburdened.svg"
   inkscape:version="1.0.2-2 (e86c870879, 2021-01-15)">
  <metadata
     id="metadata12">
    <rdf:RDF>
      <cc:Work
         rdf:about="">
        <dc:format>image/svg+xml</dc:format>
        <dc:type
           rdf:resource="http://purl.org/dc/dcmitype/StillImage" />
        <dc:title></dc:title>
      </cc:Work>
    </rdf:RDF>
  </metadata>
  <defs
     id="defs10" />
  <sodipodi:namedview
     pagecolor="#bababa"
     bordercolor="#666666"
     borderopacity="1"
     objecttolerance="10"
     gridtolerance="10"
     guidetolerance="10"
     inkscape:pageopacity="0"
     inkscape:pageshadow="2"
     inkscape:window-width="640"
     inkscape:window-height="480"
     id="namedview8"
     showgrid="true"
     inkscape:zoom="1.96875"
     inkscape:cx="210.3788"
     inkscape:cy="271.44467"
     inkscape:current-layer="svg6"
     inkscape:document-rotation="0">
    <inkscape:grid
       type="xygrid"
       id="grid833"
       empspacing="8"
       spacingx="2"
       spacingy="2" />
  </sodipodi:namedview>
  <path
     style="fill:#ffffff;fill-rule:evenodd;stroke-width:10;stroke-linejoin:round"
     d="m 351.60149,137.91132 -152.57601,100.00281 -7.86619,35.35708 -1.44292,22.75781 17.34906,35.79521 L 258,386 l 6,14 -0.78883,63.01121 L 272,480 h 16 l 5.76274,-16 0.23726,-74 -8,-18 -59.31168,-66.64623 7.3975,-21.62727 99.19418,-67.53158 -10.50907,-31.07345 0.74619,-14.54108 12.74764,-12.54981 11.40363,-2.44072 11.90254,14.64 -0.14838,18.97308 0.54836,10.75636 15.35118,-11.93588 z"
     id="path835"
     sodipodi:nodetypes="ccccccccccccccccccccccccc" />
  <path
     style="fill:#ffffff;fill-rule:evenodd;stroke-width:10;stroke-linejoin:round"
     d="m 189.25958,298 -8.88981,73.30621 -1.56136,12.33897 -45.4895,88.00765 5.60699,9.31216 15.94276,-0.96499 6.15189,-7.09588 43.2203,-79.09034 3.75915,-18.62441 4,-36.18175 -6,-6.24572 z"
     id="path837"
     sodipodi:nodetypes="cccccccccccc" />
  <ellipse
     style="fill:#ffffff;fill-rule:evenodd;stroke-width:10;stroke-linejoin:round"
     id="path839"
     cx="222.46751"
     cy="-377.09235"
     rx="36.266716"
     ry="39.687771"
     transform="rotate(80.742158)" />
  <rect
     style="fill:#ad0000;fill-opacity:1;fill-rule:evenodd;stroke-width:10;stroke-linejoin:round"
     id="rect841"
     width="277.80615"
     height="150.76682"
     x="-59.414364"
     y="151.96689"
     transform="rotate(-32.663898)" />
  <path
     style="fill:#ffffff;fill-rule:evenodd;stroke-width:10;stroke-linejoin:round"
     d="m 335.81964,214.94984 35.06434,76.11094 13.27356,7.49271 12.80499,-4.47777 6.84145,-12.15426 L 404.8914,208 l -9.55675,-9.43794 -11.74473,0.69148 -6.68274,11.39356 5.77551,60.82896 -25.89869,-68.3793 -1.64507,-32.26909 -8.76509,-11.45309 -9.51127,3.088 -9.56073,9.41235 -1.344,10.10909 z"
     id="path843"
     sodipodi:nodetypes="ccccccccccccccccc" />
  <path
     style="fill:#ffffff;fill-rule:evenodd;stroke-width:10;stroke-linejoin:round"
     d="m 348,244 -10,-22 -36,26 v -8 l -24,16 4,10 16,6 14,-4 z"
     id="path932"
     sodipodi:nodetypes="ccccccccc" />
  <path
     style="fill:#ffffff;fill-rule:evenodd;stroke-width:10;stroke-linejoin:round"
     d="m 360,208 8,22 3.86914,-2.43359 L 376,220 l -2,-10 -6,-5.10938 z"
     id="path928"
     sodipodi:nodetypes="ccccccc" />
</svg>
