<?xml version="1.0" encoding="UTF-8" standalone="no"?>
<svg
   xmlns:dc="http://purl.org/dc/elements/1.1/"
   xmlns:cc="http://creativecommons.org/ns#"
   xmlns:rdf="http://www.w3.org/1999/02/22-rdf-syntax-ns#"
   xmlns:svg="http://www.w3.org/2000/svg"
   xmlns="http://www.w3.org/2000/svg"
   xmlns:sodipodi="http://sodipodi.sourceforge.net/DTD/sodipodi-0.dtd"
   xmlns:inkscape="http://www.inkscape.org/namespaces/inkscape"
   viewBox="0 0 512 512"
   width="512"
   height="512"
   version="1.1"
   id="svg6"
   sodipodi:docname="terrified.svg"
   inkscape:version="1.0.2-2 (e86c870879, 2021-01-15)">
  <metadata
     id="metadata12">
    <rdf:RDF>
      <cc:Work
         rdf:about="">
        <dc:format>image/svg+xml</dc:format>
        <dc:type
           rdf:resource="http://purl.org/dc/dcmitype/StillImage" />
        <dc:title />
      </cc:Work>
    </rdf:RDF>
  </metadata>
  <defs
     id="defs10" />
  <sodipodi:namedview
     pagecolor="#afafaf"
     bordercolor="#666666"
     borderopacity="1"
     objecttolerance="10"
     gridtolerance="10"
     guidetolerance="10"
     inkscape:pageopacity="0"
     inkscape:pageshadow="2"
     inkscape:window-width="640"
     inkscape:window-height="480"
     id="namedview8"
     showgrid="true"
     inkscape:zoom="1.3921165"
     inkscape:cx="179.27692"
     inkscape:cy="265.54062"
     inkscape:current-layer="svg6"
     inkscape:document-rotation="0"
     inkscape:snap-to-guides="true"
     inkscape:snap-bbox="true"
     inkscape:bbox-nodes="true"
     inkscape:snap-grids="true"
     inkscape:snap-object-midpoints="true">
    <inkscape:grid
       type="xygrid"
       id="grid831"
       empspacing="8"
       spacingy="4"
       spacingx="4" />
  </sodipodi:namedview>
  <g
     id="g838"
     transform="matrix(1.1066449,0,0,1.1066449,-27.301094,-29.833816)">
    <rect
       style="fill:#c70000;fill-opacity:1;fill-rule:evenodd;stroke-width:10;stroke-linejoin:round"
       id="rect888"
       width="248"
       height="120"
       x="136"
       y="128" />
    <path
       id="path833"
       style="fill:#ffffff;fill-opacity:1;fill-rule:evenodd;stroke-width:10;stroke-linejoin:round"
       d="m 256,51.753906 c -22.14529,0 -44.29057,4.082181 -64,12.246094 -13.93667,5.772758 -21.33333,21.333333 -32,32 -10.66667,10.66667 -24.56767,18.87308 -32,32 -16.25159,28.70341 -19.9698,63.26229 -24,96 -1.30329,10.58675 -1.9032,21.5045 0,32 8,16 8,16 24,32 19.06766,43.72619 23.42159,134.92116 64,160 36.29443,22.43119 91.70557,22.43119 128,0 40.57841,-25.07884 44.93234,-116.27381 64,-160 16,-16 16,-16 24,-32 1.9032,-10.4955 1.30329,-21.41325 0,-32 -4.0302,-32.73771 -7.74841,-67.29659 -24,-96 C 376.56767,114.87308 362.66667,106.66667 352,96 341.33333,85.333333 333.93667,69.772758 320,64 300.29057,55.836087 278.14529,51.753906 256,51.753906 Z M 182.10406,140.0009 c 13.85566,0 27.71051,20.72612 32.32907,34.54431 4.61855,13.81817 4.61837,34.54569 -0.57751,41.45479 -7.98037,17.72394 -13.26142,16.58644 -19.05093,18.9991 -8.08247,1.72727 -21.93931,3.42972 -31.75375,0 C 157.30786,234.57898 150.79177,226.62889 144,216 c -5.16627,-16.30042 -3.46391,-27.63727 0,-38.0009 8.66422,-24.81485 19.77042,-35.62717 38.10406,-37.9982 z m 147.79188,0 c 18.33364,2.37103 29.43984,13.18335 38.10406,37.9982 3.46391,10.36363 5.16627,21.70048 0,38.0009 -6.79177,10.62889 -13.30786,18.57898 -19.05094,18.9991 -9.81444,3.42972 -23.67128,1.72727 -31.75375,0 -5.78951,-2.41266 -11.07056,-1.27516 -19.05093,-18.9991 -5.19588,-6.9091 -5.19606,-27.63662 -0.57751,-41.45479 4.61856,-13.81819 18.47341,-34.54431 32.32907,-34.54431 z M 224,256 c 8,0 12,4 16,5.96825 16,2.03175 16,2.03175 32,0 C 276,260 280,256 288,256 c 4,4 4,4 0,8 l -12,8 c -20,4 -20,4 -40,0 l -12,-8 c -4,-4 -4,-4 0,-8 z m 32,44 c 16,0 38.59068,9.51562 52,12 12,8 16,20 23.68164,32.88867 9.59165,14.48763 1.61269,38.19336 -3.55469,46.98438 C 318.70452,402.51601 308,416 296,420 c -12,8 -20,12 -40,12 -20,0 -28,-4 -40,-12 -12,-4 -22.70452,-17.48399 -32.12695,-28.12695 -5.16738,-8.79102 -13.14634,-32.49675 -3.55469,-46.98438 C 188,332 192,320 204,312 c 13.40932,-2.48438 36,-12 52,-12 z"
       sodipodi:nodetypes="sssssccccccssssscsccccccccccccsccccccccccccccccccccc" />
    <circle
       style="fill:#ffffff;fill-opacity:1;fill-rule:evenodd;stroke-width:10;stroke-linejoin:round"
       id="path863"
       cx="188"
       cy="192"
       r="16" />
    <circle
       style="fill:#ffffff;fill-opacity:1;fill-rule:evenodd;stroke-width:10;stroke-linejoin:round"
       id="path863-2"
       cx="324"
       cy="192"
       r="16" />
  </g>
</svg>
